<svg width="203" height="150" viewBox="0 0 203 150" fill="none" xmlns="http://www.w3.org/2000/svg">
<path d="M75 0C116.421 0 150 33.5786 150 75C150 116.421 116.421 150 75 150C33.5786 150 0 116.421 0 75C0 33.5786 33.5786 0 75 0Z" fill="#5C0DAB" fill-opacity="0.12"/>
<path d="M128 0C169.421 3.87444e-05 203 33.5787 203 75C203 116.421 169.421 150 128 150C86.5786 150 53 116.421 53 75C53 33.5786 86.5786 0 128 0Z" fill="#5C0DAB" fill-opacity="0.2"/>
<path d="M16.8182 85V61.7273H24.6818C26.5 61.7273 27.9924 62.0379 29.1591 62.6591C30.3258 63.2727 31.1894 64.1174 31.75 65.1932C32.3106 66.2689 32.5909 67.4924 32.5909 68.8636C32.5909 70.2348 32.3106 71.4508 31.75 72.5114C31.1894 73.572 30.3295 74.4053 29.1705 75.0114C28.0114 75.6098 26.5303 75.9091 24.7273 75.9091H18.3636V73.3636H24.6364C25.8788 73.3636 26.8788 73.1818 27.6364 72.8182C28.4015 72.4545 28.9545 71.9394 29.2955 71.2727C29.6439 70.5985 29.8182 69.7955 29.8182 68.8636C29.8182 67.9318 29.6439 67.1174 29.2955 66.4205C28.947 65.7235 28.3902 65.1856 27.625 64.8068C26.8598 64.4205 25.8485 64.2273 24.5909 64.2273H19.6364V85H16.8182ZM27.7727 74.5455L33.5 85H30.2273L24.5909 74.5455H27.7727ZM37.2869 85V61.7273H51.3324V64.2273H40.1051V72.0909H50.6051V74.5909H40.1051V82.5H51.5142V85H37.2869ZM71.6847 61.7273H74.5028V77.1364C74.5028 78.7273 74.1278 80.1477 73.3778 81.3977C72.6354 82.6402 71.5862 83.6212 70.2301 84.3409C68.8741 85.053 67.2831 85.4091 65.4574 85.4091C63.6316 85.4091 62.0407 85.053 60.6847 84.3409C59.3286 83.6212 58.2756 82.6402 57.5256 81.3977C56.7831 80.1477 56.4119 78.7273 56.4119 77.1364V61.7273H59.2301V76.9091C59.2301 78.0455 59.4801 79.0568 59.9801 79.9432C60.4801 80.822 61.1922 81.5152 62.1165 82.0227C63.0483 82.5227 64.1619 82.7727 65.4574 82.7727C66.7528 82.7727 67.8665 82.5227 68.7983 82.0227C69.7301 81.5152 70.4422 80.822 70.9347 79.9432C71.4347 79.0568 71.6847 78.0455 71.6847 76.9091V61.7273ZM98.5852 61.7273V85H95.858L83.1761 66.7273H82.9489V85H80.1307V61.7273H82.858L95.5852 80.0455H95.8125V61.7273H98.5852ZM107.043 61.7273V85H104.224V61.7273H107.043ZM111.42 64.2273V61.7273H128.875V64.2273H121.557V85H118.739V64.2273H111.42ZM133.224 85V61.7273H147.27V64.2273H136.043V72.0909H146.543V74.5909H136.043V82.5H147.452V85H133.224Z" fill="black"/>
<path d="M150.818 51.7273H154.182L162.091 71.0455H162.364L170.273 51.7273H173.636V75H171V57.3182H170.773L163.5 75H160.955L153.682 57.3182H153.455V75H150.818V51.7273ZM179.287 75V51.7273H193.332V54.2273H182.105V62.0909H192.605V64.5909H182.105V72.5H193.514V75H179.287Z" fill="black"/>
<path d="M28.767 107V101.545H29.5767V102.369H29.6335C29.733 102.099 29.9129 101.88 30.1733 101.712C30.4337 101.544 30.7273 101.46 31.054 101.46C31.1155 101.46 31.1925 101.461 31.2848 101.464C31.3771 101.466 31.447 101.47 31.4943 101.474V102.327C31.4659 102.32 31.4008 102.309 31.299 102.295C31.1996 102.278 31.0942 102.27 30.983 102.27C30.7178 102.27 30.4811 102.326 30.2727 102.437C30.0668 102.546 29.9034 102.697 29.7827 102.891C29.6643 103.083 29.6051 103.302 29.6051 103.548V107H28.767ZM37.5872 107.114C37.0616 107.114 36.6083 106.998 36.2271 106.766C35.8483 106.531 35.5559 106.205 35.35 105.786C35.1464 105.364 35.0446 104.874 35.0446 104.315C35.0446 103.757 35.1464 103.264 35.35 102.838C35.5559 102.41 35.8424 102.076 36.2093 101.837C36.5787 101.595 37.0095 101.474 37.502 101.474C37.786 101.474 38.0666 101.522 38.3436 101.616C38.6206 101.711 38.8727 101.865 39.1 102.078C39.3272 102.289 39.5083 102.568 39.6433 102.916C39.7782 103.264 39.8457 103.693 39.8457 104.202V104.557H35.6412V103.832H38.9934C38.9934 103.525 38.9319 103.25 38.8088 103.009C38.688 102.767 38.5152 102.576 38.2903 102.437C38.0678 102.297 37.805 102.227 37.502 102.227C37.1681 102.227 36.8793 102.31 36.6355 102.476C36.394 102.639 36.2082 102.852 36.0779 103.115C35.9477 103.378 35.8826 103.66 35.8826 103.96V104.443C35.8826 104.855 35.9537 105.204 36.0957 105.491C36.2401 105.775 36.4402 105.991 36.6958 106.141C36.9515 106.287 37.2486 106.361 37.5872 106.361C37.8074 106.361 38.0062 106.33 38.1838 106.268C38.3637 106.205 38.5188 106.11 38.649 105.984C38.7792 105.857 38.8798 105.698 38.9508 105.509L39.7605 105.736C39.6752 106.01 39.532 106.252 39.3308 106.46C39.1296 106.666 38.881 106.827 38.585 106.943C38.2891 107.057 37.9565 107.114 37.5872 107.114ZM47.3706 104.77V101.545H48.2086V107H47.3706V106.077H47.3137C47.1859 106.354 46.987 106.589 46.7172 106.783C46.4473 106.975 46.1064 107.071 45.6944 107.071C45.3535 107.071 45.0505 106.996 44.7853 106.847C44.5202 106.696 44.3118 106.469 44.1603 106.165C44.0088 105.86 43.9331 105.475 43.9331 105.011V101.545H44.7711V104.955C44.7711 105.352 44.8824 105.67 45.1049 105.906C45.3298 106.143 45.6163 106.261 45.9643 106.261C46.1726 106.261 46.3845 106.208 46.6 106.102C46.8178 105.995 47.0001 105.832 47.1468 105.612C47.296 105.391 47.3706 105.111 47.3706 104.77ZM53.3942 103.719V107H52.5561V101.545H53.3658V102.398H53.4368C53.5646 102.121 53.7588 101.898 54.0192 101.73C54.2796 101.56 54.6158 101.474 55.0277 101.474C55.397 101.474 55.7202 101.55 55.9972 101.702C56.2741 101.851 56.4896 102.078 56.6435 102.384C56.7973 102.687 56.8743 103.07 56.8743 103.534V107H56.0362V103.591C56.0362 103.162 55.925 102.829 55.7024 102.589C55.4799 102.348 55.1745 102.227 54.7862 102.227C54.5187 102.227 54.2796 102.285 54.0689 102.401C53.8606 102.517 53.696 102.687 53.5753 102.909C53.4545 103.132 53.3942 103.402 53.3942 103.719ZM61.2182 107V101.545H62.0563V107H61.2182ZM61.6444 100.636C61.481 100.636 61.3401 100.581 61.2218 100.469C61.1058 100.358 61.0478 100.224 61.0478 100.068C61.0478 99.9119 61.1058 99.7782 61.2218 99.6669C61.3401 99.5556 61.481 99.5 61.6444 99.5C61.8077 99.5 61.9474 99.5556 62.0634 99.6669C62.1818 99.7782 62.2409 99.9119 62.2409 100.068C62.2409 100.224 62.1818 100.358 62.0634 100.469C61.9474 100.581 61.8077 100.636 61.6444 100.636ZM68.7759 101.545V102.256H65.9492V101.545H68.7759ZM66.7731 100.239H67.6112V105.438C67.6112 105.674 67.6455 105.852 67.7141 105.97C67.7852 106.086 67.8751 106.164 67.984 106.205C68.0953 106.242 68.2125 106.261 68.3356 106.261C68.4279 106.261 68.5037 106.257 68.5629 106.247C68.622 106.235 68.6694 106.226 68.7049 106.219L68.8754 106.972C68.8185 106.993 68.7392 107.014 68.6374 107.036C68.5356 107.059 68.4066 107.071 68.2504 107.071C68.0136 107.071 67.7816 107.02 67.5543 106.918C67.3294 106.817 67.1424 106.661 66.9933 106.453C66.8465 106.245 66.7731 105.982 66.7731 105.665V100.239ZM75.136 107.114C74.6104 107.114 74.1571 106.998 73.7759 106.766C73.3971 106.531 73.1048 106.205 72.8988 105.786C72.6952 105.364 72.5934 104.874 72.5934 104.315C72.5934 103.757 72.6952 103.264 72.8988 102.838C73.1048 102.41 73.3912 102.076 73.7582 101.837C74.1275 101.595 74.5584 101.474 75.0508 101.474C75.3349 101.474 75.6154 101.522 75.8924 101.616C76.1694 101.711 76.4215 101.865 76.6488 102.078C76.8761 102.289 77.0572 102.568 77.1921 102.916C77.3271 103.264 77.3945 103.693 77.3945 104.202V104.557H73.19V103.832H76.5423C76.5423 103.525 76.4807 103.25 76.3576 103.009C76.2369 102.767 76.064 102.576 75.8391 102.437C75.6166 102.297 75.3538 102.227 75.0508 102.227C74.717 102.227 74.4281 102.31 74.1843 102.476C73.9428 102.639 73.757 102.852 73.6268 103.115C73.4966 103.378 73.4315 103.66 73.4315 103.96V104.443C73.4315 104.855 73.5025 105.204 73.6445 105.491C73.7889 105.775 73.989 105.991 74.2447 106.141C74.5004 106.287 74.7975 106.361 75.136 106.361C75.3562 106.361 75.555 106.33 75.7326 106.268C75.9125 106.205 76.0676 106.11 76.1978 105.984C76.328 105.857 76.4286 105.698 76.4996 105.509L77.3093 105.736C77.2241 106.01 77.0808 106.252 76.8796 106.46C76.6784 106.666 76.4298 106.827 76.1339 106.943C75.8379 107.057 75.5053 107.114 75.136 107.114ZM84.2944 107V101.545H85.104V102.398H85.1751C85.2887 102.107 85.4722 101.88 85.7255 101.719C85.9788 101.556 86.283 101.474 86.6381 101.474C86.998 101.474 87.2975 101.556 87.5366 101.719C87.7781 101.88 87.9663 102.107 88.1012 102.398H88.158C88.2977 102.116 88.5072 101.892 88.7866 101.727C89.0659 101.558 89.4009 101.474 89.7915 101.474C90.2792 101.474 90.6781 101.627 90.9883 101.933C91.2984 102.236 91.4535 102.708 91.4535 103.349V107H90.6154V103.349C90.6154 102.947 90.5053 102.659 90.2852 102.487C90.065 102.314 89.8058 102.227 89.5075 102.227C89.1239 102.227 88.8268 102.343 88.6161 102.575C88.4054 102.805 88.3001 103.096 88.3001 103.449V107H87.4478V103.264C87.4478 102.954 87.3472 102.704 87.146 102.515C86.9447 102.323 86.6855 102.227 86.3683 102.227C86.1504 102.227 85.9469 102.285 85.7575 102.401C85.5704 102.517 85.4189 102.678 85.3029 102.884C85.1893 103.088 85.1325 103.323 85.1325 103.591V107H84.2944ZM95.7983 107V101.545H96.6364V107H95.7983ZM96.2244 100.636C96.0611 100.636 95.9202 100.581 95.8018 100.469C95.6858 100.358 95.6278 100.224 95.6278 100.068C95.6278 99.9119 95.6858 99.7782 95.8018 99.6669C95.9202 99.5556 96.0611 99.5 96.2244 99.5C96.3878 99.5 96.5275 99.5556 96.6435 99.6669C96.7618 99.7782 96.821 99.9119 96.821 100.068C96.821 100.224 96.7618 100.358 96.6435 100.469C96.5275 100.581 96.3878 100.636 96.2244 100.636ZM104.847 102.767L104.095 102.98C104.047 102.855 103.977 102.733 103.885 102.614C103.795 102.494 103.672 102.394 103.516 102.316C103.36 102.238 103.16 102.199 102.916 102.199C102.582 102.199 102.304 102.276 102.081 102.43C101.861 102.581 101.751 102.774 101.751 103.009C101.751 103.217 101.827 103.381 101.978 103.502C102.13 103.623 102.366 103.723 102.688 103.804L103.498 104.003C103.986 104.121 104.349 104.302 104.588 104.546C104.827 104.788 104.947 105.099 104.947 105.48C104.947 105.793 104.857 106.072 104.677 106.318C104.499 106.564 104.251 106.759 103.931 106.901C103.612 107.043 103.24 107.114 102.816 107.114C102.26 107.114 101.799 106.993 101.435 106.751C101.07 106.51 100.839 106.157 100.742 105.693L101.538 105.494C101.614 105.788 101.757 106.008 101.968 106.155C102.181 106.302 102.459 106.375 102.802 106.375C103.193 106.375 103.503 106.292 103.732 106.126C103.964 105.958 104.08 105.757 104.08 105.523C104.08 105.333 104.014 105.175 103.882 105.047C103.749 104.917 103.545 104.82 103.271 104.756L102.362 104.543C101.862 104.424 101.495 104.241 101.261 103.992C101.029 103.741 100.913 103.428 100.913 103.051C100.913 102.743 100.999 102.471 101.172 102.234C101.347 101.998 101.585 101.812 101.886 101.677C102.189 101.542 102.532 101.474 102.916 101.474C103.455 101.474 103.879 101.593 104.187 101.83C104.497 102.066 104.717 102.379 104.847 102.767ZM112.885 102.767L112.132 102.98C112.084 102.855 112.015 102.733 111.922 102.614C111.832 102.494 111.709 102.394 111.553 102.316C111.397 102.238 111.197 102.199 110.953 102.199C110.619 102.199 110.341 102.276 110.118 102.43C109.898 102.581 109.788 102.774 109.788 103.009C109.788 103.217 109.864 103.381 110.015 103.502C110.167 103.623 110.404 103.723 110.725 103.804L111.535 104.003C112.023 104.121 112.386 104.302 112.625 104.546C112.864 104.788 112.984 105.099 112.984 105.48C112.984 105.793 112.894 106.072 112.714 106.318C112.537 106.564 112.288 106.759 111.968 106.901C111.649 107.043 111.277 107.114 110.853 107.114C110.297 107.114 109.837 106.993 109.472 106.751C109.107 106.51 108.877 106.157 108.779 105.693L109.575 105.494C109.651 105.788 109.794 106.008 110.005 106.155C110.218 106.302 110.496 106.375 110.839 106.375C111.23 106.375 111.54 106.292 111.77 106.126C112.002 105.958 112.118 105.757 112.118 105.523C112.118 105.333 112.051 105.175 111.919 105.047C111.786 104.917 111.583 104.82 111.308 104.756L110.399 104.543C109.899 104.424 109.532 104.241 109.298 103.992C109.066 103.741 108.95 103.428 108.95 103.051C108.95 102.743 109.036 102.471 109.209 102.234C109.384 101.998 109.622 101.812 109.923 101.677C110.226 101.542 110.569 101.474 110.953 101.474C111.493 101.474 111.916 101.593 112.224 101.83C112.534 102.066 112.754 102.379 112.885 102.767ZM117.058 107V101.545H117.896V107H117.058ZM117.484 100.636C117.321 100.636 117.18 100.581 117.062 100.469C116.946 100.358 116.888 100.224 116.888 100.068C116.888 99.9119 116.946 99.7782 117.062 99.6669C117.18 99.5556 117.321 99.5 117.484 99.5C117.648 99.5 117.787 99.5556 117.903 99.6669C118.022 99.7782 118.081 99.9119 118.081 100.068C118.081 100.224 118.022 100.358 117.903 100.469C117.787 100.581 117.648 100.636 117.484 100.636ZM123.082 103.719V107H122.244V101.545H123.053V102.398H123.124C123.252 102.121 123.446 101.898 123.707 101.73C123.967 101.56 124.303 101.474 124.715 101.474C125.085 101.474 125.408 101.55 125.685 101.702C125.962 101.851 126.177 102.078 126.331 102.384C126.485 102.687 126.562 103.07 126.562 103.534V107H125.724V103.591C125.724 103.162 125.612 102.829 125.39 102.589C125.167 102.348 124.862 102.227 124.474 102.227C124.206 102.227 123.967 102.285 123.756 102.401C123.548 102.517 123.384 102.687 123.263 102.909C123.142 103.132 123.082 103.402 123.082 103.719ZM133.107 109.159C132.703 109.159 132.355 109.107 132.063 109.003C131.772 108.901 131.53 108.766 131.335 108.598C131.144 108.432 130.991 108.255 130.877 108.065L131.545 107.597C131.621 107.696 131.717 107.81 131.833 107.938C131.949 108.068 132.107 108.18 132.308 108.275C132.512 108.372 132.778 108.42 133.107 108.42C133.548 108.42 133.911 108.314 134.198 108.101C134.484 107.888 134.627 107.554 134.627 107.099V105.991H134.556C134.495 106.091 134.407 106.214 134.294 106.361C134.182 106.505 134.021 106.634 133.811 106.748C133.602 106.859 133.32 106.915 132.965 106.915C132.525 106.915 132.13 106.811 131.779 106.602C131.431 106.394 131.155 106.091 130.952 105.693C130.751 105.295 130.65 104.812 130.65 104.244C130.65 103.686 130.748 103.199 130.945 102.785C131.141 102.368 131.415 102.046 131.765 101.819C132.115 101.589 132.52 101.474 132.98 101.474C133.335 101.474 133.616 101.534 133.825 101.652C134.035 101.768 134.196 101.901 134.308 102.05C134.421 102.196 134.509 102.317 134.57 102.412H134.656V101.545H135.465V107.156C135.465 107.625 135.359 108.006 135.146 108.3C134.935 108.596 134.651 108.812 134.294 108.95C133.938 109.089 133.543 109.159 133.107 109.159ZM133.079 106.162C133.415 106.162 133.699 106.085 133.931 105.931C134.163 105.777 134.34 105.556 134.46 105.267C134.581 104.978 134.642 104.633 134.642 104.23C134.642 103.837 134.582 103.49 134.464 103.19C134.346 102.889 134.17 102.653 133.938 102.483C133.706 102.312 133.42 102.227 133.079 102.227C132.724 102.227 132.428 102.317 132.191 102.497C131.957 102.677 131.78 102.919 131.662 103.222C131.546 103.525 131.488 103.861 131.488 104.23C131.488 104.609 131.547 104.944 131.666 105.235C131.786 105.524 131.964 105.751 132.198 105.917C132.435 106.08 132.729 106.162 133.079 106.162Z" fill="black"/>
<line x1="25" y1="93.5" x2="144" y2="93.5" stroke="#140623"/>
</svg>
